<svg width="32" height="32" viewBox="0 0 32 32" fill="none" xmlns="http://www.w3.org/2000/svg">
<g clip-path="url(#clip0_1_325)">
<rect width="32" height="32" fill="white"/>
<path d="M10.8 17.7866L14.5733 14.0133L5.21332 4.66661C3.13332 6.74661 3.13332 10.1199 5.21332 12.2133L10.8 17.7866ZM19.84 15.3733C21.88 16.3199 24.7467 15.6533 26.8667 13.5333C29.4133 10.9866 29.9067 7.33328 27.9467 5.37328C26 3.42661 22.3467 3.90661 19.7867 6.45328C17.6667 8.57328 17 11.4399 17.9467 13.4799L4.93332 26.4933L6.81332 28.3733L16 19.2133L25.1733 28.3866L27.0533 26.5066L17.88 17.3333L19.84 15.3733Z" fill="#2A7AE4"/>
</g>
<defs>
<clipPath id="clip0_1_325">
<rect width="32" height="32" fill="white"/>
</clipPath>
</defs>
</svg>
