<svg width="22" height="36" viewBox="0 0 22 36" fill="none" xmlns="http://www.w3.org/2000/svg">
<g clip-path="url(#clip0_1_298)">
<path d="M15.3005 4.31512H4.10527C2.46974 4.31512 1.13854 5.64516 1.13854 7.27732V18.2308H0.848724C0.188614 18.2308 -0.346619 18.7647 -0.346619 19.4244V26.6632C-0.346619 27.3229 0.188614 27.8569 0.848724 27.8569H1.13854V29.1843C1.13854 30.8182 2.4698 32.1464 4.10527 32.1464H19.3808C21.0154 32.1464 22.3466 30.8181 22.3466 29.1843V11.3257L15.3005 4.31512ZM5.363 24.8192C5.70612 24.8192 6.08653 24.7447 6.31073 24.6555L6.48191 25.5415C6.27326 25.6462 5.80313 25.7582 5.19175 25.7582C3.45337 25.7582 2.55814 24.6783 2.55814 23.2481C2.55814 21.5351 3.78175 20.5816 5.30345 20.5816C5.89291 20.5816 6.34033 20.7008 6.54163 20.8046L6.31073 21.706C6.07924 21.6087 5.75855 21.5196 5.35577 21.5196C4.45279 21.5196 3.75169 22.0636 3.75169 23.1808C3.75169 24.1861 4.34849 24.8192 5.363 24.8192ZM19.3807 30.3323H4.10527C3.47199 30.3323 2.95624 29.8174 2.95624 29.1843V27.8569H17.1962C17.8564 27.8569 18.3917 27.3229 18.3917 26.6632V19.4244C18.3917 18.7647 17.8564 18.2308 17.1962 18.2308H2.95624V7.27732C2.95624 6.64587 3.47199 6.13097 4.10527 6.13097L14.6209 6.12006V10.0011C14.6209 11.1346 15.5421 12.0553 16.6783 12.0553L20.4859 12.0444L20.5287 29.1843C20.5287 29.8174 20.014 30.3323 19.3807 30.3323ZM8.4838 23.5756C7.64817 23.2854 7.1034 22.8233 7.1034 22.0936C7.1034 21.2365 7.81947 20.5816 9.00579 20.5816C9.57254 20.5816 9.99081 20.7007 10.2887 20.8345L10.0354 21.7507C9.83408 21.6542 9.47593 21.5122 8.98348 21.5122C8.49103 21.5122 8.25232 21.7361 8.25232 21.9963C8.25232 22.3165 8.53566 22.4585 9.18484 22.704C10.0728 23.0316 10.4905 23.4938 10.4905 24.2016C10.4905 25.043 9.84131 25.7582 8.46137 25.7582C7.88688 25.7582 7.31974 25.609 7.03639 25.4524L7.26776 24.5145C7.57354 24.671 8.04367 24.8266 8.52837 24.8266C9.05048 24.8266 9.32654 24.6109 9.32654 24.2833C9.3266 23.9705 9.08789 23.7912 8.4838 23.5756ZM12.5143 23.5756C11.6788 23.2854 11.1339 22.8233 11.1339 22.0936C11.1339 21.2365 11.8501 20.5816 13.0363 20.5816C13.6036 20.5816 14.0208 20.7007 14.3197 20.8345L14.066 21.7507C13.8646 21.6542 13.5065 21.5122 13.014 21.5122C12.5216 21.5122 12.2829 21.7361 12.2829 21.9963C12.2829 22.3165 12.5662 22.4585 13.2155 22.704C14.1033 23.0316 14.5212 23.4938 14.5212 24.2016C14.5212 25.043 13.872 25.7582 12.492 25.7582C11.9175 25.7582 11.3503 25.609 11.0669 25.4524L11.2984 24.5145C11.6041 24.671 12.0742 24.8266 12.5589 24.8266C13.081 24.8266 13.3571 24.6109 13.3571 24.2833C13.3571 23.9705 13.1183 23.7912 12.5143 23.5756Z" fill="#2A7AE4"/>
</g>
<defs>
<clipPath id="clip0_1_298">
<rect width="22" height="35.5385" fill="white" transform="translate(0 0.461548)"/>
</clipPath>
</defs>
</svg>
