<svg width="32" height="32" viewBox="0 0 32 32" fill="none" xmlns="http://www.w3.org/2000/svg">
<g clip-path="url(#clip0_1_305)">
<path d="M17.3333 4.00004C17.3333 2.53337 18.5333 1.33337 20 1.33337C21.4667 1.33337 22.6667 2.53337 22.6667 4.00004C22.6667 5.46671 21.4667 6.66671 20 6.66671C18.5333 6.66671 17.3333 5.46671 17.3333 4.00004ZM9.66667 30C9.12 30 8.66667 30.4534 8.66667 31C8.66667 31.5467 9.12 32 9.66667 32C10.2133 32 10.6667 31.5467 10.6667 31C10.6667 30.4534 10.2133 30 9.66667 30ZM21 30C20.4533 30 20 30.4534 20 31C20 31.5467 20.4533 32 21 32C21.5467 32 22 31.5467 22 31C22 30.4534 21.5467 30 21 30ZM25.6533 25.3334C25.3333 25.3334 25.0533 25.48 24.8667 25.7334C24.1333 26.7067 22.9733 27.3334 21.6667 27.3334H21.3333V19.3334L15.5733 15.7734L17.9733 11.92C19.5067 14.3734 22.24 16 25.3333 16V13.3334C22.8667 13.3334 20.7467 11.84 19.8267 9.70671L19.1333 8.09337C18.88 7.52004 18.1467 6.66671 16.9333 6.66671H9.33333L6 12L8.26667 13.4134L10.8 9.33337H13.9333L10.7333 14.4534C10.32 15.12 10.2133 15.9334 10.4533 16.68L12.24 22.2134L8.08 27.2267C7.14667 27.0134 6.34667 26.4667 5.8 25.7334C5.61333 25.48 5.32 25.3334 5 25.3334C4.41333 25.3334 4 25.8134 4 26.3334C4 26.5334 4.06667 26.7467 4.2 26.9334C5.29333 28.4 7.04 29.3334 9 29.3334H21.6667C23.6267 29.3334 25.3733 28.4 26.4667 26.9334C26.6 26.7467 26.6667 26.5334 26.6667 26.3334C26.6667 25.8134 26.24 25.3334 25.6533 25.3334ZM18.6667 27.3334H11.4667L15.3333 22.6667L14 18.2667L18.6667 21.2V27.3334Z" fill="#2A7AE4"/>
</g>
<defs>
<clipPath id="clip0_1_305">
<rect width="32" height="32" fill="white"/>
</clipPath>
</defs>
</svg>
